<?xml version="1.0" ?><svg id="Layer_1" style="enable-background:new 0 0 48 48;" version="1.1" viewBox="0 0 48 48" xml:space="preserve" xmlns="http://www.w3.org/2000/svg" xmlns:xlink="http://www.w3.org/1999/xlink"><g><path d="M43,46H5c-1.7,0-3-1.3-3-3V21c0-1.7,1.3-3,3-3h8.7c0.4,0,0.7-0.2,0.9-0.5l0.9-1.9c0.4-1,1.5-1.7,2.7-1.7h11.5   c1.2,0,2.3,0.7,2.7,1.7l0.9,1.7c0.2,0.3,0.5,0.5,0.9,0.5H43c1.7,0,3,1.3,3,3v22C46,44.7,44.7,46,43,46z M5,20c-0.6,0-1,0.4-1,1v22   c0,0.6,0.4,1,1,1h38c0.6,0,1-0.4,1-1V21c0-0.6-0.4-1-1-1h-8.8c-1.1,0-2.1-0.6-2.7-1.6l-0.9-1.8c-0.2-0.4-0.5-0.5-0.9-0.5H18.2   c-0.4,0-0.7,0.2-0.9,0.5l-0.9,1.9c-0.4,1-1.5,1.7-2.7,1.7H5z"/></g><g><path d="M24,42c-5.5,0-10-4.5-10-10s4.5-10,10-10c5.5,0,10,4.5,10,10S29.5,42,24,42z M24,24c-4.4,0-8,3.6-8,8s3.6,8,8,8s8-3.6,8-8   S28.4,24,24,24z"/></g></svg>